<svg width="390" height="390" viewBox="0 0 390 390" fill="none" xmlns="http://www.w3.org/2000/svg">
<path d="M303.707 175.066V119.282C296.203 103.605 297.395 93.92 300.042 87.8995C304.288 78.2143 317.377 74.666 320.518 62.6832C320.721 61.8979 321.594 58.4077 322.205 53.7833C322.903 48.7516 323.048 44.4762 323.048 41.4805C323.193 44.3598 323.484 48.5771 324.182 53.6378C324.764 57.826 325.433 61.4325 325.695 62.6832C328.37 74.6078 341.808 78.0107 346.17 87.8995C348.817 93.92 350.009 103.605 342.506 119.282V175.066" stroke="#231F20" stroke-width="5.81692" stroke-miterlimit="10"/>
<path d="M284.859 117.676H361.236" stroke="#231F20" stroke-width="5.81692" stroke-miterlimit="10"/>
<path d="M262.406 174.768C262.406 172.18 262.668 167.643 264.878 162.669C268.02 155.572 273.109 151.879 275.262 150.512C277.356 151.704 283.231 155.369 286.546 163.076C288.641 167.962 288.844 172.442 288.757 174.972" stroke="#231F20" stroke-width="5.81692" stroke-miterlimit="10"/>
<path d="M235.706 174.768C235.706 172.18 235.968 167.643 238.178 162.669C241.319 155.572 246.409 151.879 248.561 150.512C250.656 151.704 256.531 155.369 259.846 163.076C261.94 167.962 262.144 172.442 262.057 174.972" stroke="#231F20" stroke-width="5.81692" stroke-miterlimit="10"/>
<path d="M208.979 174.768C208.979 172.18 209.24 167.643 211.451 162.669C214.592 155.572 219.682 151.879 221.834 150.512C223.928 151.704 229.803 155.369 233.119 163.076C235.213 167.962 235.416 172.442 235.329 174.972" stroke="#231F20" stroke-width="5.81692" stroke-miterlimit="10"/>
<path d="M182.277 174.768C182.277 172.18 182.539 167.643 184.75 162.669C187.891 155.572 192.98 151.879 195.133 150.512C197.227 151.704 203.102 155.369 206.418 163.076C208.512 167.962 208.715 172.442 208.628 174.972" stroke="#231F20" stroke-width="5.81692" stroke-miterlimit="10"/>
<path d="M155.578 174.768C155.578 172.18 155.84 167.643 158.05 162.669C161.191 155.572 166.281 151.879 168.434 150.512C170.528 151.704 176.403 155.369 179.718 163.076C181.812 167.962 182.016 172.442 181.929 174.972" stroke="#231F20" stroke-width="5.81692" stroke-miterlimit="10"/>
<path d="M128.879 174.768C128.879 172.18 129.141 167.643 131.351 162.669C134.492 155.572 139.582 151.879 141.734 150.512C143.828 151.704 149.704 155.369 153.019 163.076C155.113 167.962 155.317 172.442 155.23 174.972" stroke="#231F20" stroke-width="5.81692" stroke-miterlimit="10"/>
<path d="M102.149 174.768C102.149 172.18 102.411 167.643 104.622 162.669C107.763 155.572 112.853 151.879 115.005 150.512C117.099 151.704 122.974 155.369 126.29 163.076C128.384 167.962 128.587 172.442 128.5 174.972" stroke="#231F20" stroke-width="5.81692" stroke-miterlimit="10"/>
<path d="M157.177 290.006C156.974 279.332 156.77 268.658 156.566 257.984C156.828 249.2 159.766 244.052 161.802 241.347C164.448 237.828 167.299 235.996 179.369 229.335C184.575 226.456 190.072 223.46 195.772 220.406C198.914 222.209 204.44 225.38 211.478 229.335C222.85 235.734 226.05 237.363 229.045 241.347C231.081 244.052 234.019 249.2 234.281 257.984C234.077 268.658 233.873 279.332 233.67 290.006" stroke="#231F20" stroke-width="5.81692" stroke-miterlimit="10"/>
<path d="M48.2565 175.066V119.282C40.7527 103.605 41.9452 93.92 44.5919 87.8995C48.8382 78.2143 61.9263 74.666 65.0675 62.6832C65.2711 61.8979 66.1436 58.4077 66.7544 53.7833C67.4524 48.7516 67.5978 44.4762 67.5978 41.4805C67.7432 44.3598 68.0341 48.5771 68.7321 53.6378C69.3138 57.826 69.9828 61.4325 70.2445 62.6832C72.9203 74.6078 86.3574 78.0107 90.7201 87.8995C93.3668 93.92 94.5593 103.605 87.0554 119.282V175.066" stroke="#231F20" stroke-width="5.81692" stroke-miterlimit="10"/>
<path d="M29.4092 117.676H105.814" stroke="#231F20" stroke-width="5.81692" stroke-miterlimit="10"/>
<path d="M195.279 0V51.7415" stroke="#231F20" stroke-width="5.81692" stroke-miterlimit="10"/>
<path d="M195.279 81.1193C203.182 81.1193 209.589 74.7126 209.589 66.8096C209.589 58.9066 203.182 52.5 195.279 52.5C187.376 52.5 180.97 58.9066 180.97 66.8096C180.97 74.7126 187.376 81.1193 195.279 81.1193Z" stroke="#231F20" stroke-width="5.81692" stroke-miterlimit="10"/>
<path d="M148.161 155.597C145.805 152.921 137.574 142.858 137.952 128.315C138.039 125.232 138.359 116.304 144.322 108.276C148.393 102.808 152.843 100.685 165.931 94.461C172.068 91.5234 179.572 87.946 193.882 81.082C187.774 93.3557 182.219 102.925 178.234 109.469C173.755 116.827 171.312 120.288 169.712 126.105C166.891 136.401 168.985 145.912 171.138 152.252" stroke="#231F20" stroke-width="5.81692" stroke-linejoin="round"/>
<path d="M243.296 154.87C246.117 150.449 251.963 139.95 251.091 126.135C250.829 122.005 250.305 113.715 244.721 106.095C242.074 102.489 238.468 99.2894 223.111 92.28C216.189 89.1098 206.795 85.1252 195.248 81.1406C201.53 94.4032 207.871 104.03 212.582 110.429C216.276 115.431 218.894 118.427 220.988 123.691C224.943 133.726 223.576 143.643 221.802 150.478" stroke="#231F20" stroke-width="5.81692" stroke-linejoin="round"/>
<path d="M34.7314 290.21V177.188H356.233V290.327" stroke="#231F20" stroke-width="5.81692" stroke-miterlimit="10"/>
<path d="M16.9033 206.238H373.917" stroke="#231F20" stroke-width="5.81692" stroke-miterlimit="10"/>
<path d="M112.737 206.238V290.322" stroke="#231F20" stroke-width="5.81692" stroke-miterlimit="10"/>
<path d="M278.315 206.238V290.322" stroke="#231F20" stroke-width="5.81692" stroke-miterlimit="10"/>
<path d="M86.5886 239.777H61.6631V263.22H86.5886V239.777Z" stroke="#231F20" stroke-width="5.81692" stroke-miterlimit="10"/>
<path d="M329.156 240.301H304.23V263.743H329.156V240.301Z" stroke="#231F20" stroke-width="5.81692" stroke-miterlimit="10"/>
<path d="M156.566 257.953H234.281" stroke="#231F20" stroke-width="5.81692" stroke-miterlimit="10"/>
<path d="M182.54 257.953V289.975" stroke="#231F20" stroke-width="5.81692" stroke-miterlimit="10"/>
<path d="M208.104 257.867V290.326" stroke="#231F20" stroke-width="5.81692" stroke-miterlimit="10"/>
<path d="M387.033 290.324H3V386.362H387.033V290.324Z" stroke="#231F20" stroke-width="5.81692" stroke-miterlimit="10"/>
<path d="M3 359.605H105.581" stroke="#231F20" stroke-width="5.81692" stroke-miterlimit="10"/>
<path d="M29.1768 359.605V386.392" stroke="#231F20" stroke-width="5.81692" stroke-miterlimit="10"/>
<path d="M55.2363 359.605V386.392" stroke="#231F20" stroke-width="5.81692" stroke-miterlimit="10"/>
<path d="M81.5283 359.605V386.392" stroke="#231F20" stroke-width="5.81692" stroke-miterlimit="10"/>
<path d="M105.58 386.394V347.595C105.929 343.872 107.034 337.648 110.786 330.958C115.469 322.611 121.809 317.957 125.125 315.863C128.412 317.928 134.781 322.553 139.435 330.958C143.157 337.677 144.146 343.901 144.466 347.595V386.394" stroke="#231F20" stroke-width="5.81692" stroke-miterlimit="10"/>
<path d="M246.178 386.394V347.595C246.527 343.872 247.632 337.648 251.384 330.958C256.067 322.611 262.407 317.957 265.723 315.863C269.009 317.928 275.379 322.553 280.032 330.958C283.755 337.677 284.744 343.901 285.064 347.595V386.394" stroke="#231F20" stroke-width="5.81692" stroke-miterlimit="10"/>
<path d="M144.466 347.594H105.58" stroke="#231F20" stroke-width="5.81692" stroke-miterlimit="10"/>
<path d="M246.178 347.594H285.035" stroke="#231F20" stroke-width="5.81692" stroke-miterlimit="10"/>
<path d="M169.799 385.14V335.871H220.871V386.391" stroke="#231F20" stroke-width="5.81692" stroke-miterlimit="10"/>
<path d="M144.467 359.605H246.176" stroke="#231F20" stroke-width="5.81692" stroke-miterlimit="10"/>
<path d="M285.121 359.605H387.034" stroke="#231F20" stroke-width="5.81692" stroke-miterlimit="10"/>
<path d="M310.743 359.605V386.392" stroke="#231F20" stroke-width="5.81692" stroke-miterlimit="10"/>
<path d="M336.076 359.605V386.392" stroke="#231F20" stroke-width="5.81692" stroke-miterlimit="10"/>
<path d="M361.758 359.605V386.392" stroke="#231F20" stroke-width="5.81692" stroke-miterlimit="10"/>
<path d="M195.016 359.605V386.392" stroke="#231F20" stroke-width="5.81692" stroke-miterlimit="10"/>
</svg>
