<svg width="532" height="398" viewBox="0 0 532 398" fill="none" xmlns="http://www.w3.org/2000/svg">
<path d="M0 390.621H531.617" stroke="black" stroke-width="5.42245" stroke-miterlimit="10"/>
<path d="M78.4902 390.621V230.902H204.318" stroke="black" stroke-width="5.42245" stroke-miterlimit="10"/>
<path d="M105.251 390.624V278.434" stroke="black" stroke-width="5.42245" stroke-miterlimit="10"/>
<path d="M126.668 390.624V278.434" stroke="black" stroke-width="5.42245" stroke-miterlimit="10"/>
<path d="M164.164 390.624V278.434" stroke="black" stroke-width="5.42245" stroke-miterlimit="10"/>
<path d="M186.234 390.624V278.434" stroke="black" stroke-width="5.42245" stroke-miterlimit="10"/>
<path d="M66.4248 343.348H186.234" stroke="black" stroke-width="5.42245" stroke-miterlimit="10"/>
<path d="M66.4248 359.422H105.25" stroke="black" stroke-width="5.42245" stroke-miterlimit="10"/>
<path d="M126.668 359.422H164.164" stroke="black" stroke-width="5.42245" stroke-miterlimit="10"/>
<path d="M145.402 230.902V359.415" stroke="black" stroke-width="5.42245" stroke-miterlimit="10"/>
<path d="M66.4248 278.434H204.318" stroke="black" stroke-width="5.42245" stroke-miterlimit="10"/>
<path d="M96.547 248.312H78.4902" stroke="black" stroke-width="5.42245" stroke-miterlimit="10"/>
<path d="M96.547 263.359H78.4902" stroke="black" stroke-width="5.42245" stroke-miterlimit="10"/>
<path d="M160.802 248.312H126.668" stroke="black" stroke-width="5.42245" stroke-miterlimit="10"/>
<path d="M160.802 263.359H126.668" stroke="black" stroke-width="5.42245" stroke-miterlimit="10"/>
<path d="M204.318 248.312H186.234" stroke="black" stroke-width="5.42245" stroke-miterlimit="10"/>
<path d="M204.318 263.359H186.234" stroke="black" stroke-width="5.42245" stroke-miterlimit="10"/>
<path d="M78.4902 230.907L69.1094 218.191H204.318V390.625L227.743 368.963V278.435L249.189 239.935L278.389 240.315L299.835 278.787V369.315L323.26 390.978V218.544H458.469L449.115 231.26" stroke="black" stroke-width="5.42245" stroke-miterlimit="10"/>
<path d="M91.2042 218.188L81.498 201.785H198.623" stroke="black" stroke-width="5.42245" stroke-miterlimit="10"/>
<path d="M141.392 218.188L132.363 201.785" stroke="black" stroke-width="5.42245" stroke-miterlimit="10"/>
<path d="M106.253 201.786L96.5469 185.383H213.672" stroke="black" stroke-width="5.42245" stroke-miterlimit="10"/>
<path d="M156.466 201.786L147.41 185.383" stroke="black" stroke-width="5.42245" stroke-miterlimit="10"/>
<path d="M118.533 185.379L108.827 168.977H225.979" stroke="black" stroke-width="5.42245" stroke-miterlimit="10"/>
<path d="M158.798 185.379L149.742 168.977" stroke="black" stroke-width="5.42245" stroke-miterlimit="10"/>
<path d="M119.294 142.227H407.796" stroke="black" stroke-width="5.42245" stroke-miterlimit="10"/>
<path d="M138.381 142.227V168.986" stroke="black" stroke-width="5.42245" stroke-miterlimit="10"/>
<path d="M181.896 142.227V168.986" stroke="black" stroke-width="5.42245" stroke-miterlimit="10"/>
<path d="M233.436 142.227V168.986" stroke="black" stroke-width="5.42245" stroke-miterlimit="10"/>
<path d="M142.069 141.733L132.363 127.824H249.488" stroke="black" stroke-width="5.42245" stroke-miterlimit="10"/>
<path d="M151.098 127.827L141.392 113.918H258.517" stroke="black" stroke-width="5.42245" stroke-miterlimit="10"/>
<path d="M294.007 142.715V169.475" stroke="black" stroke-width="5.42245" stroke-miterlimit="10"/>
<path d="M344.543 142.715V169.475" stroke="black" stroke-width="5.42245" stroke-miterlimit="10"/>
<path d="M389.035 142.715V169.475" stroke="black" stroke-width="5.42245" stroke-miterlimit="10"/>
<path d="M173.518 97.375V112.992" stroke="black" stroke-width="5.42245" stroke-miterlimit="10"/>
<path d="M204.941 97.375V112.992" stroke="black" stroke-width="5.42245" stroke-miterlimit="10"/>
<path d="M242.167 97.375V112.992" stroke="black" stroke-width="5.42245" stroke-miterlimit="10"/>
<path d="M285.926 97.6484V113.292" stroke="black" stroke-width="5.42245" stroke-miterlimit="10"/>
<path d="M322.419 97.6484V113.292" stroke="black" stroke-width="5.42245" stroke-miterlimit="10"/>
<path d="M354.574 97.6484V113.292" stroke="black" stroke-width="5.42245" stroke-miterlimit="10"/>
<path d="M158.797 97.375H369.622" stroke="black" stroke-width="5.42245" stroke-miterlimit="10"/>
<path d="M180.243 97.0872L170.537 80.3047H254.965L272.615 80.6843H357.042L347.336 97.4668" stroke="black" stroke-width="5.42245" stroke-miterlimit="10"/>
<path d="M201.39 59.8828V79.9459" stroke="black" stroke-width="5.42245" stroke-miterlimit="10"/>
<path d="M223.269 59.8828V79.9459" stroke="black" stroke-width="5.42245" stroke-miterlimit="10"/>
<path d="M249.189 59.8828V79.9459" stroke="black" stroke-width="5.42245" stroke-miterlimit="10"/>
<path d="M279.663 60.2656V80.3016" stroke="black" stroke-width="5.42245" stroke-miterlimit="10"/>
<path d="M305.065 60.2656V80.3016" stroke="black" stroke-width="5.42245" stroke-miterlimit="10"/>
<path d="M327.463 60.2656V80.3016" stroke="black" stroke-width="5.42245" stroke-miterlimit="10"/>
<path d="M330.472 47.8398H195.941C193.17 47.8398 190.925 50.0855 190.925 52.8556V54.8619C190.925 57.6321 193.17 59.8777 195.941 59.8777H330.472C333.242 59.8777 335.487 57.6321 335.487 54.8619V52.8556C335.487 50.0855 333.242 47.8398 330.472 47.8398Z" stroke="black" stroke-width="5.42245" stroke-miterlimit="10"/>
<path d="M199.953 47.848L227.743 24.0977" stroke="black" stroke-width="5.42245" stroke-miterlimit="10"/>
<path d="M234.603 47.848L247.156 24.0977" stroke="black" stroke-width="5.42245" stroke-miterlimit="10"/>
<path d="M305.311 3H222.429C217.577 3 213.645 6.9329 213.645 11.7844V15.309C213.645 20.1604 217.577 24.0933 222.429 24.0933H305.311C310.163 24.0933 314.095 20.1604 314.095 15.309V11.7844C314.095 6.9329 310.163 3 305.311 3Z" stroke="black" stroke-width="5.42245" stroke-miterlimit="10"/>
<path d="M326.837 47.848L299.074 24.0977" stroke="black" stroke-width="5.42245" stroke-miterlimit="10"/>
<path d="M292.216 47.848L279.663 24.0977" stroke="black" stroke-width="5.42245" stroke-miterlimit="10"/>
<path d="M263.559 47.848V24.0977" stroke="black" stroke-width="5.42245" stroke-miterlimit="10"/>
<path d="M329.171 201.785H198.598C194.825 201.785 191.766 204.844 191.766 208.617V211.356C191.766 215.129 194.825 218.188 198.598 218.188H329.171C332.944 218.188 336.003 215.129 336.003 211.356V208.617C336.003 204.844 332.944 201.785 329.171 201.785Z" stroke="black" stroke-width="5.42245" stroke-miterlimit="10"/>
<path d="M313.797 185.383H214.132C210.553 185.383 207.652 188.284 207.652 191.863V194.465C207.652 198.044 210.553 200.945 214.132 200.945H313.797C317.376 200.945 320.277 198.044 320.277 194.465V191.863C320.277 188.284 317.376 185.383 313.797 185.383Z" stroke="black" stroke-width="5.42245" stroke-miterlimit="10"/>
<path d="M306.423 168.977H220.911C217.332 168.977 214.431 171.878 214.431 175.456V178.059C214.431 181.638 217.332 184.539 220.911 184.539H306.423C310.001 184.539 312.902 181.638 312.902 178.059V175.456C312.902 171.878 310.001 168.977 306.423 168.977Z" stroke="black" stroke-width="5.42245" stroke-miterlimit="10"/>
<path d="M204.319 263.359H236.122" stroke="black" stroke-width="5.42245" stroke-miterlimit="10"/>
<path d="M278.389 349.254V304.763L249.189 304.41V348.874L278.389 349.254Z" stroke="black" stroke-width="5.42245" stroke-miterlimit="10"/>
<path d="M204.319 278.434H227.744L299.836 278.786H323.261" stroke="black" stroke-width="5.42245" stroke-miterlimit="10"/>
<path d="M305.988 127.824H221.479C218.23 127.824 215.596 130.458 215.596 133.708V136.066C215.596 139.316 218.23 141.95 221.479 141.95H305.988C309.237 141.95 311.871 139.316 311.871 136.066V133.708C311.871 130.458 309.237 127.824 305.988 127.824Z" stroke="black" stroke-width="5.42245" stroke-miterlimit="10"/>
<path d="M297.232 113.918H230.102C226.942 113.918 224.381 116.479 224.381 119.639V121.889C224.381 125.048 226.942 127.61 230.102 127.61H297.232C300.391 127.61 302.952 125.048 302.952 121.889V119.639C302.952 116.479 300.391 113.918 297.232 113.918Z" stroke="black" stroke-width="5.42245" stroke-miterlimit="10"/>
<path d="M449.116 390.98V231.262H323.261" stroke="black" stroke-width="5.42245" stroke-miterlimit="10"/>
<path d="M422.326 390.976V278.785" stroke="black" stroke-width="5.42245" stroke-miterlimit="10"/>
<path d="M400.909 390.976V278.785" stroke="black" stroke-width="5.42245" stroke-miterlimit="10"/>
<path d="M363.439 390.976V278.785" stroke="black" stroke-width="5.42245" stroke-miterlimit="10"/>
<path d="M341.345 390.976V278.785" stroke="black" stroke-width="5.42245" stroke-miterlimit="10"/>
<path d="M461.154 343.727H341.345" stroke="black" stroke-width="5.42245" stroke-miterlimit="10"/>
<path d="M461.151 359.773H422.326" stroke="black" stroke-width="5.42245" stroke-miterlimit="10"/>
<path d="M400.909 359.773H363.439" stroke="black" stroke-width="5.42245" stroke-miterlimit="10"/>
<path d="M382.175 231.262V359.774" stroke="black" stroke-width="5.42245" stroke-miterlimit="10"/>
<path d="M461.154 278.785H323.261" stroke="black" stroke-width="5.42245" stroke-miterlimit="10"/>
<path d="M431.032 248.664H449.116" stroke="black" stroke-width="5.42245" stroke-miterlimit="10"/>
<path d="M431.032 263.746H449.116" stroke="black" stroke-width="5.42245" stroke-miterlimit="10"/>
<path d="M366.775 248.664H400.91" stroke="black" stroke-width="5.42245" stroke-miterlimit="10"/>
<path d="M366.775 263.746H400.91" stroke="black" stroke-width="5.42245" stroke-miterlimit="10"/>
<path d="M323.261 248.664H341.345" stroke="black" stroke-width="5.42245" stroke-miterlimit="10"/>
<path d="M323.261 263.746H341.345" stroke="black" stroke-width="5.42245" stroke-miterlimit="10"/>
<path d="M436.373 218.544L446.079 202.168H328.954" stroke="black" stroke-width="5.42245" stroke-miterlimit="10"/>
<path d="M386.188 218.544L395.216 202.168" stroke="black" stroke-width="5.42245" stroke-miterlimit="10"/>
<path d="M421.326 202.165L431.032 185.762H313.907" stroke="black" stroke-width="5.42245" stroke-miterlimit="10"/>
<path d="M371.112 202.165L380.168 185.762" stroke="black" stroke-width="5.42245" stroke-miterlimit="10"/>
<path d="M409.044 185.758L418.75 169.355H301.598" stroke="black" stroke-width="5.42245" stroke-miterlimit="10"/>
<path d="M368.78 185.758L377.836 169.355" stroke="black" stroke-width="5.42245" stroke-miterlimit="10"/>
<path d="M389.196 142.578V169.365" stroke="black" stroke-width="5.42245" stroke-miterlimit="10"/>
<path d="M345.682 142.578V169.365" stroke="black" stroke-width="5.42245" stroke-miterlimit="10"/>
<path d="M294.142 142.578V169.365" stroke="black" stroke-width="5.42245" stroke-miterlimit="10"/>
<path d="M385.51 142.085L395.216 128.203H278.091" stroke="black" stroke-width="5.42245" stroke-miterlimit="10"/>
<path d="M376.481 128.205L386.188 114.297H269.062" stroke="black" stroke-width="5.42245" stroke-miterlimit="10"/>
<path d="M354.058 97.7344V113.378" stroke="black" stroke-width="5.42245" stroke-miterlimit="10"/>
<path d="M322.636 97.7344V113.378" stroke="black" stroke-width="5.42245" stroke-miterlimit="10"/>
<path d="M285.41 97.7344V113.378" stroke="black" stroke-width="5.42245" stroke-miterlimit="10"/>
<path d="M323.259 263.746H291.456" stroke="black" stroke-width="5.42245" stroke-miterlimit="10"/>
<path d="M227.743 368.965H299.835" stroke="black" stroke-width="5.42245" stroke-miterlimit="10"/>
</svg>
