<svg width="771" height="391" viewBox="0 0 771 391" fill="none" xmlns="http://www.w3.org/2000/svg">
<path d="M14 387.5H740.778" stroke="black" stroke-width="6.42882" stroke-miterlimit="10"/>
<path d="M67.0996 387.497V224.27" stroke="black" stroke-width="6.42882" stroke-miterlimit="10"/>
<path d="M92.2686 387.497V224.27" stroke="black" stroke-width="6.42882" stroke-miterlimit="10"/>
<path d="M265.59 387.498V140.695" stroke="black" stroke-width="6.42882" stroke-miterlimit="10"/>
<path d="M240.423 224.27L14 222.695L127.212 165.864V140.695H240.423V387.498" stroke="black" stroke-width="6.42882" stroke-miterlimit="10"/>
<path d="M127.21 165.867H240.421" stroke="black" stroke-width="6.42882" stroke-miterlimit="10"/>
<path d="M69.2881 195.895H240.423" stroke="black" stroke-width="6.42882" stroke-miterlimit="10"/>
<path d="M130.779 346.606H208.439V284.503C205.707 264.606 188.382 249.884 168.677 250.334C149.648 250.784 133.415 265.281 130.779 284.503V346.606Z" stroke="black" stroke-width="6.42882" stroke-miterlimit="10"/>
<path d="M704.356 387.497V224.27" stroke="black" stroke-width="6.42882" stroke-miterlimit="10"/>
<path d="M679.223 387.497V224.27" stroke="black" stroke-width="6.42882" stroke-miterlimit="10"/>
<path d="M505.902 387.498V140.695" stroke="black" stroke-width="6.42882" stroke-miterlimit="10"/>
<path d="M531.067 224.27L757.49 222.695L644.279 165.864V140.695H531.067V387.498" stroke="black" stroke-width="6.42882" stroke-miterlimit="10"/>
<path d="M578.579 140.703L384.3 26.1094H387.161L192.914 140.703" stroke="black" stroke-width="6.42882" stroke-miterlimit="10"/>
<path d="M644.279 165.867H531.067" stroke="black" stroke-width="6.42882" stroke-miterlimit="10"/>
<path d="M702.203 195.895H531.067" stroke="black" stroke-width="6.42882" stroke-miterlimit="10"/>
<path d="M640.711 346.606H563.051V284.503C565.783 264.606 583.109 249.884 602.813 250.334C621.842 250.784 638.075 265.281 640.711 284.503V346.606Z" stroke="black" stroke-width="6.42882" stroke-miterlimit="10"/>
<path d="M385.744 0V26.101" stroke="black" stroke-width="6.42882" stroke-miterlimit="10"/>
<path d="M260.287 100.933V68.9492H382.981L328.947 100.933H228.304" stroke="black" stroke-width="6.42882" stroke-miterlimit="10"/>
<path d="M508.633 100.933V68.9492H385.939L439.974 100.933H540.585" stroke="black" stroke-width="6.42882" stroke-miterlimit="10"/>
<path d="M240.421 112.668H531.068" stroke="black" stroke-width="6.42882" stroke-miterlimit="10"/>
<path d="M240.421 140.695H531.068" stroke="black" stroke-width="6.42882" stroke-miterlimit="10"/>
<path d="M305.641 387.493V235.419C311.427 200.864 339.81 174.956 373.047 172.674C409.755 170.166 444.085 197.039 450.707 235.419V387.493" stroke="black" stroke-width="6.42882" stroke-miterlimit="10"/>
</svg>
