<svg width="779" height="389" viewBox="0 0 779 389" fill="none" xmlns="http://www.w3.org/2000/svg">
<path d="M0 385.523H778.976" stroke="black" stroke-width="6.31542" stroke-miterlimit="10"/>
<path d="M71.5547 385.526V323.888L347.128 312.488" stroke="black" stroke-width="6.31542" stroke-miterlimit="10"/>
<path d="M111.278 385.524V322.875" stroke="black" stroke-width="6.31542" stroke-miterlimit="10"/>
<path d="M231.839 385.526V317.066" stroke="black" stroke-width="6.31542" stroke-miterlimit="10"/>
<path d="M190.252 385.518V318.891" stroke="black" stroke-width="6.31542" stroke-miterlimit="10"/>
<path d="M307.907 385.528V314.922" stroke="black" stroke-width="6.31542" stroke-miterlimit="10"/>
<path d="M268.152 385.524V316.844" stroke="black" stroke-width="6.31542" stroke-miterlimit="10"/>
<path d="M347.126 385.521V147.492C349.747 144.714 363.546 130.535 385.966 129.841C410.501 129.051 426.037 145.029 428.374 147.492V385.521" stroke="black" stroke-width="6.31542" stroke-miterlimit="10"/>
<path d="M386.061 108.621V129.809" stroke="black" stroke-width="6.31542" stroke-miterlimit="10"/>
<path d="M307.907 142.195H352.905" stroke="black" stroke-width="6.31542" stroke-miterlimit="10"/>
<path d="M307.907 179.297H347.126" stroke="black" stroke-width="6.31542" stroke-miterlimit="10"/>
<path d="M307.907 214.625H347.126" stroke="black" stroke-width="6.31542" stroke-miterlimit="10"/>
<path d="M151.033 385.53V321.144C151.633 313.313 152.202 305.482 152.802 297.651C188.073 294.24 223.692 291.019 259.658 287.925C289.025 285.43 318.171 283.062 347.127 280.852L428.501 281.673C457.457 283.883 486.603 286.22 515.97 288.746C551.936 291.809 587.555 295.061 622.827 298.472C623.427 306.303 623.995 314.134 624.595 321.965V386.351" stroke="black" stroke-width="6.31542" stroke-miterlimit="10"/>
<path d="M71.5547 350.223H347.128" stroke="black" stroke-width="6.31542" stroke-miterlimit="10"/>
<path d="M160.032 296.952V249.05L347.127 239.355L428.469 240.176L615.564 249.902V297.773" stroke="black" stroke-width="6.31542" stroke-miterlimit="10"/>
<path d="M236.354 289.943V244.883" stroke="black" stroke-width="6.31542" stroke-miterlimit="10"/>
<path d="M194.735 292.942V247.25" stroke="black" stroke-width="6.31542" stroke-miterlimit="10"/>
<path d="M312.426 283.627V241.156" stroke="black" stroke-width="6.31542" stroke-miterlimit="10"/>
<path d="M272.667 286.815V243.207" stroke="black" stroke-width="6.31542" stroke-miterlimit="10"/>
<path d="M664.319 386.344V323.727" stroke="black" stroke-width="6.31542" stroke-miterlimit="10"/>
<path d="M543.759 386.354V317.895" stroke="black" stroke-width="6.31542" stroke-miterlimit="10"/>
<path d="M585.346 386.35V319.754" stroke="black" stroke-width="6.31542" stroke-miterlimit="10"/>
<path d="M467.689 386.341V315.734" stroke="black" stroke-width="6.31542" stroke-miterlimit="10"/>
<path d="M507.444 386.352V317.672" stroke="black" stroke-width="6.31542" stroke-miterlimit="10"/>
<path d="M467.69 143.012H422.692" stroke="black" stroke-width="6.31542" stroke-miterlimit="10"/>
<path d="M467.689 180.113H428.471" stroke="black" stroke-width="6.31542" stroke-miterlimit="10"/>
<path d="M467.689 215.453H428.471" stroke="black" stroke-width="6.31542" stroke-miterlimit="10"/>
<path d="M704.044 351.047H428.471" stroke="black" stroke-width="6.31542" stroke-miterlimit="10"/>
<path d="M539.241 290.763V245.734" stroke="black" stroke-width="6.31542" stroke-miterlimit="10"/>
<path d="M580.861 293.79V248.066" stroke="black" stroke-width="6.31542" stroke-miterlimit="10"/>
<path d="M463.172 284.444V241.973" stroke="black" stroke-width="6.31542" stroke-miterlimit="10"/>
<path d="M502.927 287.639V244.031" stroke="black" stroke-width="6.31542" stroke-miterlimit="10"/>
<path d="M347.126 208.002C349.431 205.476 363.893 190.224 387.513 190.129C411.385 190.035 426.069 205.507 428.374 208.002" stroke="black" stroke-width="6.31542" stroke-miterlimit="10"/>
<path d="M347.126 179.299C349.431 176.773 363.893 161.521 387.513 161.426C411.385 161.331 426.069 176.804 428.374 179.299" stroke="black" stroke-width="6.31542" stroke-miterlimit="10"/>
<path d="M178.821 248.073C208.03 157.225 293.32 95.6815 388.146 96.6919C481.298 97.7024 564.157 158.867 592.829 248.073" stroke="black" stroke-width="6.31542" stroke-miterlimit="10"/>
<path d="M327.517 64.918H451.741" stroke="black" stroke-width="6.31542" stroke-miterlimit="10"/>
<path d="M372.262 97.1266V64.918" stroke="black" stroke-width="6.31542" stroke-miterlimit="10"/>
<path d="M341.002 101.39V64.918" stroke="black" stroke-width="6.31542" stroke-miterlimit="10"/>
<path d="M402.796 97.3477V64.918" stroke="black" stroke-width="6.31542" stroke-miterlimit="10"/>
<path d="M433.365 101.989V64.918" stroke="black" stroke-width="6.31542" stroke-miterlimit="10"/>
<path d="M385.809 0V64.9225" stroke="black" stroke-width="6.31542" stroke-miterlimit="10"/>
<path d="M368.946 47.6875H402.797" stroke="black" stroke-width="6.31542" stroke-miterlimit="10"/>
<path d="M347.126 312.488L428.469 313.309L704.042 324.709V386.347" stroke="black" stroke-width="6.31542" stroke-miterlimit="10"/>
</svg>
