<svg width="831" height="396" viewBox="0 0 831 396" fill="none" xmlns="http://www.w3.org/2000/svg">
<path d="M0 392.5H830.202" stroke="black" stroke-width="6.58368" stroke-miterlimit="10"/>
<path d="M114.95 392.501V265.305" stroke="black" stroke-width="6.58368" stroke-miterlimit="10"/>
<path d="M689.705 392.501V265.535" stroke="black" stroke-width="6.58368" stroke-miterlimit="10"/>
<path d="M103.758 307.834C196.193 302.897 293.17 300.033 394.329 299.901C501.281 299.737 603.591 302.666 700.865 307.834" stroke="black" stroke-width="6.58368" stroke-miterlimit="10"/>
<path d="M698.497 265.311C603.231 261.526 504.443 259.452 402.33 259.452C300.777 259.452 202.515 261.558 107.776 265.311C103.53 265.311 100.073 261.822 100.073 257.608C100.073 253.395 103.53 249.905 107.776 249.905C201.429 245.527 299.164 243.025 400.75 242.993C504.048 242.96 603.396 245.461 698.497 249.905C702.743 249.905 706.2 253.395 706.2 257.608C706.2 261.822 702.743 265.311 698.497 265.311Z" stroke="black" stroke-width="6.58368" stroke-miterlimit="10"/>
<path d="M134.011 264.352V392.503" stroke="black" stroke-width="6.58368" stroke-miterlimit="10"/>
<path d="M151.325 392.497V337.425C151.325 327.418 158.073 318.398 167.85 316.324C169.233 316.028 170.648 315.863 172.097 315.863C174.072 315.863 175.981 316.094 177.825 316.555C187.14 318.991 193.362 327.78 193.362 337.392V392.497" stroke="black" stroke-width="6.58368" stroke-miterlimit="10"/>
<path d="M227.96 392.497V337.425C227.96 327.418 234.708 318.398 244.485 316.324C245.868 316.028 247.283 315.863 248.731 315.863C250.707 315.863 252.616 316.094 254.459 316.555C263.775 318.991 269.997 327.78 269.997 337.392V392.497" stroke="black" stroke-width="6.58368" stroke-miterlimit="10"/>
<path d="M304.595 392.497V337.425C304.595 327.418 311.343 318.398 321.12 316.324C322.502 316.028 323.918 315.863 325.366 315.863C327.341 315.863 329.251 316.094 331.094 316.555C340.41 318.991 346.632 327.78 346.632 337.392V392.497" stroke="black" stroke-width="6.58368" stroke-miterlimit="10"/>
<path d="M210.646 261.648V392.499" stroke="black" stroke-width="6.58368" stroke-miterlimit="10"/>
<path d="M287.277 260.57V393.857" stroke="black" stroke-width="6.58368" stroke-miterlimit="10"/>
<path d="M363.912 259.605V393.847" stroke="black" stroke-width="6.58368" stroke-miterlimit="10"/>
<path d="M381.227 392.497V337.425C381.227 327.418 387.975 318.398 397.752 316.324C399.134 316.028 400.55 315.863 401.998 315.863C403.973 315.863 405.882 316.094 407.726 316.555C417.042 318.991 423.263 327.78 423.263 337.392V392.497" stroke="black" stroke-width="6.58368" stroke-miterlimit="10"/>
<path d="M457.861 392.497V337.425C457.861 327.418 464.61 318.398 474.386 316.324C475.769 316.028 477.184 315.863 478.633 315.863C480.608 315.863 482.517 316.094 484.361 316.555C493.677 318.991 499.898 327.78 499.898 337.392V392.497" stroke="black" stroke-width="6.58368" stroke-miterlimit="10"/>
<path d="M534.497 392.497V337.425C534.497 327.418 541.245 318.398 551.022 316.324C552.405 316.028 553.82 315.863 555.269 315.863C557.244 315.863 559.153 316.094 560.996 316.555C570.312 318.991 576.534 327.78 576.534 337.392V392.497" stroke="black" stroke-width="6.58368" stroke-miterlimit="10"/>
<path d="M670.449 263.129V391.247" stroke="black" stroke-width="6.58368" stroke-miterlimit="10"/>
<path d="M593.813 261.781V392.632" stroke="black" stroke-width="6.58368" stroke-miterlimit="10"/>
<path d="M517.183 258.551V391.87" stroke="black" stroke-width="6.58368" stroke-miterlimit="10"/>
<path d="M440.547 258.102V392.343" stroke="black" stroke-width="6.58368" stroke-miterlimit="10"/>
<path d="M611.132 392.497V337.425C611.132 327.418 617.88 318.398 627.657 316.324C629.039 316.028 630.455 315.863 631.903 315.863C633.878 315.863 635.788 316.094 637.631 316.555C646.947 318.991 653.169 327.78 653.169 337.392V392.497" stroke="black" stroke-width="6.58368" stroke-miterlimit="10"/>
<path d="M114.95 282.852C211.994 279.988 311.736 278.474 414.047 278.606C508.161 278.704 600.069 280.186 689.706 282.852" stroke="black" stroke-width="6.58368" stroke-miterlimit="10"/>
<path d="M150.538 247.402V167.641" stroke="black" stroke-width="6.58368" stroke-miterlimit="10"/>
<path d="M650.862 248.291V167.641" stroke="black" stroke-width="6.58368" stroke-miterlimit="10"/>
<path d="M128.25 169.816C212.883 161.521 301.631 156.682 394.231 156.451C492.13 156.188 585.783 161.093 674.827 169.816" stroke="black" stroke-width="6.58368" stroke-miterlimit="10"/>
<path d="M170.78 167.641V247.402" stroke="black" stroke-width="6.58368" stroke-miterlimit="10"/>
<path d="M188.095 245.55V195.679C188.095 186.626 194.843 178.462 204.62 176.553C206.002 176.29 207.418 176.125 208.866 176.125C210.841 176.125 212.751 176.323 214.594 176.75C223.91 178.956 230.132 186.922 230.132 195.613V245.517" stroke="black" stroke-width="6.58368" stroke-miterlimit="10"/>
<path d="M264.729 244.034V194.163C264.729 185.11 271.478 176.947 281.255 175.037C282.637 174.774 284.053 174.609 285.501 174.609C287.476 174.609 289.385 174.807 291.229 175.235C300.545 177.44 306.766 185.407 306.766 194.097V244.001" stroke="black" stroke-width="6.58368" stroke-miterlimit="10"/>
<path d="M341.364 242.53V192.659C341.364 183.606 348.113 175.443 357.889 173.533C359.272 173.27 360.687 173.105 362.136 173.105C364.111 173.105 366.02 173.303 367.864 173.731C377.179 175.936 383.401 183.903 383.401 192.593V242.497" stroke="black" stroke-width="6.58368" stroke-miterlimit="10"/>
<path d="M247.416 159.938V245.229" stroke="black" stroke-width="6.58368" stroke-miterlimit="10"/>
<path d="M324.05 158.125V245.03" stroke="black" stroke-width="6.58368" stroke-miterlimit="10"/>
<path d="M400.683 156.441V243.939" stroke="black" stroke-width="6.58368" stroke-miterlimit="10"/>
<path d="M418 244.034V194.163C418 185.11 424.748 176.947 434.525 175.037C435.908 174.774 437.323 174.609 438.771 174.609C440.747 174.609 442.656 174.807 444.499 175.235C453.815 177.44 460.037 185.407 460.037 194.097V244.001" stroke="black" stroke-width="6.58368" stroke-miterlimit="10"/>
<path d="M494.631 244.034V194.163C494.631 185.11 501.379 176.947 511.156 175.037C512.538 174.774 513.954 174.609 515.402 174.609C517.378 174.609 519.287 174.807 521.13 175.235C530.446 177.44 536.668 185.407 536.668 194.097V244.001" stroke="black" stroke-width="6.58368" stroke-miterlimit="10"/>
<path d="M571.267 245.55V195.679C571.267 186.626 578.015 178.462 587.792 176.553C589.174 176.29 590.59 176.125 592.038 176.125C594.013 176.125 595.922 176.323 597.766 176.75C607.082 178.956 613.303 186.922 613.303 195.613V245.517" stroke="black" stroke-width="6.58368" stroke-miterlimit="10"/>
<path d="M630.583 165.531V246.412" stroke="black" stroke-width="6.58368" stroke-miterlimit="10"/>
<path d="M553.952 159.012V245.916" stroke="black" stroke-width="6.58368" stroke-miterlimit="10"/>
<path d="M477.316 157.637V245.134" stroke="black" stroke-width="6.58368" stroke-miterlimit="10"/>
<path d="M163.11 151.245C240.237 145.847 322.468 142.555 409.241 142.357C488.475 142.193 563.858 144.629 634.995 148.941C641.743 148.941 647.833 144.826 650.401 138.604C650.401 138.604 652.573 133.897 650.96 127.083C646.418 108.023 589.666 61.3779 585.519 57.9544C582.358 54.7284 578.046 52.9508 573.536 52.9508C516.16 49.1981 455.03 47.0255 390.576 47.0913C328.492 47.1571 269.535 49.3297 214.034 52.9508C212.553 52.9508 209.788 53.1483 206.694 54.6296C204.422 55.7159 202.414 57.3289 200.834 59.3369L149.778 124.022C141.054 135.049 148.988 151.278 163.044 151.212L163.11 151.245Z" stroke="black" stroke-width="6.58368" stroke-miterlimit="10"/>
<path d="M172.954 42.3168C186.681 45.872 200.375 49.4272 214.102 52.9494C269.603 49.3284 328.559 47.1558 390.644 47.09C455.098 47.0241 516.194 49.1967 573.604 52.9494C586.113 48.8676 598.622 44.7857 611.164 40.7038C541.838 37.0828 468.759 35.1077 392.257 35.371C315.622 35.6344 242.445 38.1691 172.987 42.2839L172.954 42.3168Z" stroke="black" stroke-width="6.58368" stroke-linejoin="round"/>
<path d="M409.769 4L425.734 20.4921H349.627L363.914 4L375.731 20.4921L387.681 4L398.906 20.4921L409.769 4Z" stroke="black" stroke-width="6.58368" stroke-linejoin="round"/>
<path d="M349.627 20.4961V35.8032" stroke="black" stroke-width="6.58368" stroke-linejoin="round"/>
<path d="M375.171 20.4961V35.8032" stroke="black" stroke-width="6.58368" stroke-linejoin="round"/>
<path d="M398.904 20.4961V35.8032" stroke="black" stroke-width="6.58368" stroke-linejoin="round"/>
<path d="M425.734 20.4961V35.8032" stroke="black" stroke-width="6.58368" stroke-linejoin="round"/>
</svg>
