<svg width="484" height="396" viewBox="0 0 484 396" fill="none" xmlns="http://www.w3.org/2000/svg">
<path d="M49.1879 391.763V125.056C49.1879 110.217 36.3161 99.3461 23.7778 100.847C12.9401 102.147 3.80315 112.451 4.00323 125.056V391.796H479.96V127.291C481.827 111.618 470.523 98.8459 458.918 98.1456C446.547 97.3786 432.975 110.35 434.742 127.291C434.975 215.459 435.209 303.594 435.442 391.763" stroke="black" stroke-width="6.66933" stroke-miterlimit="10"/>
<path d="M336.105 387.366V60.6353C337.972 41.2609 326.667 25.4879 315.063 24.6209C302.691 23.6872 289.119 39.6936 290.887 60.6353C291.12 169.545 291.353 278.456 291.587 387.366" stroke="black" stroke-width="6.66933" stroke-miterlimit="10"/>
<path d="M192.21 390.127V55.1262C192.21 36.4854 179.339 22.8466 166.8 24.714C155.963 26.348 146.826 39.2865 147.026 55.1262V390.093" stroke="black" stroke-width="6.66933" stroke-miterlimit="10"/>
<path d="M49.1875 125.051C53.4225 101.108 74.4976 83.6347 98.6073 83.9015C122.317 84.1682 142.825 101.508 146.993 125.051" stroke="black" stroke-width="6.66933" stroke-miterlimit="10"/>
<path d="M336.438 125.094C340.673 101.151 361.748 83.6776 385.857 83.9444C409.567 84.2112 430.075 101.551 434.243 125.094" stroke="black" stroke-width="6.66933" stroke-miterlimit="10"/>
<path d="M192.545 49.9551C196.78 23.2111 217.855 3.7033 241.965 4.00342C265.674 4.27019 286.182 23.6779 290.351 49.9551" stroke="black" stroke-width="6.66933" stroke-miterlimit="10"/>
<path d="M97.0059 63.4023V83.8772" stroke="black" stroke-width="6.66933" stroke-miterlimit="10"/>
<path d="M385.924 63.4023V83.8772" stroke="black" stroke-width="6.66933" stroke-miterlimit="10"/>
<path d="M49.1875 160H146.993" stroke="black" stroke-width="6.66933" stroke-miterlimit="10"/>
<path d="M48.0869 240.141H145.893" stroke="black" stroke-width="6.66933" stroke-miterlimit="10"/>
<path d="M49.7539 316.191H147.56" stroke="black" stroke-width="6.66933" stroke-miterlimit="10"/>
<path d="M193.18 83.8789H290.985" stroke="black" stroke-width="6.66933" stroke-miterlimit="10"/>
<path d="M193.278 160.211H291.084" stroke="black" stroke-width="6.66933" stroke-miterlimit="10"/>
<path d="M195.913 240.141H293.719" stroke="black" stroke-width="6.66933" stroke-miterlimit="10"/>
<path d="M191.911 316.191H289.717" stroke="black" stroke-width="6.66933" stroke-miterlimit="10"/>
<path d="M336.738 162.031H434.544" stroke="black" stroke-width="6.66933" stroke-miterlimit="10"/>
<path d="M335.604 242.211H433.409" stroke="black" stroke-width="6.66933" stroke-miterlimit="10"/>
<path d="M337.271 318.227H435.077" stroke="black" stroke-width="6.66933" stroke-miterlimit="10"/>
<path d="M76.0312 159.997V133.987C79.4326 124.783 88.1694 118.581 97.9067 118.447C107.911 118.314 116.981 124.55 120.516 133.987V159.997" stroke="black" stroke-width="6.66933" stroke-miterlimit="10"/>
<path d="M76.4316 238.302V212.292C79.833 203.088 88.5698 196.885 98.3071 196.752C108.311 196.619 117.381 202.855 120.916 212.292V238.302" stroke="black" stroke-width="6.66933" stroke-miterlimit="10"/>
<path d="M76.4316 315.935V289.924C79.833 280.721 88.5698 274.518 98.3071 274.385C108.311 274.252 117.381 280.487 120.916 289.924V315.935" stroke="black" stroke-width="6.66933" stroke-miterlimit="10"/>
<path d="M76.4316 393.931V367.921C79.833 358.717 88.5698 352.514 98.3071 352.381C108.311 352.248 117.381 358.483 120.916 367.921V393.931" stroke="black" stroke-width="6.66933" stroke-miterlimit="10"/>
<path d="M219.891 84.4778V58.4674C223.292 49.2637 232.029 43.0613 241.766 42.9279C251.77 42.7945 260.84 49.0303 264.375 58.4674V84.4778" stroke="black" stroke-width="6.66933" stroke-miterlimit="10"/>
<path d="M219.923 159.997V133.987C223.324 124.783 232.061 118.581 241.798 118.447C251.802 118.314 260.873 124.55 264.407 133.987V159.997" stroke="black" stroke-width="6.66933" stroke-miterlimit="10"/>
<path d="M219.923 238.575V212.565C223.324 203.361 232.061 197.159 241.798 197.026C251.802 196.892 260.873 203.128 264.407 212.565V238.575" stroke="black" stroke-width="6.66933" stroke-miterlimit="10"/>
<path d="M219.891 315.935V289.924C223.292 280.721 232.029 274.518 241.766 274.385C251.77 274.252 260.84 280.487 264.375 289.924V315.935" stroke="black" stroke-width="6.66933" stroke-miterlimit="10"/>
<path d="M219.923 393.033V367.022C223.324 357.818 232.061 351.616 241.798 351.483C251.802 351.349 260.873 357.585 264.407 367.022V393.033" stroke="black" stroke-width="6.66933" stroke-miterlimit="10"/>
<path d="M363.281 157.865V131.854C366.683 122.65 375.419 116.448 385.157 116.315C395.161 116.181 404.231 122.417 407.766 131.854V157.865" stroke="black" stroke-width="6.66933" stroke-miterlimit="10"/>
<path d="M363.948 238.575V212.565C367.35 203.361 376.086 197.159 385.824 197.026C395.828 196.892 404.898 203.128 408.433 212.565V238.575" stroke="black" stroke-width="6.66933" stroke-miterlimit="10"/>
<path d="M363.682 316.001V289.991C367.083 280.787 375.82 274.585 385.557 274.451C395.561 274.318 404.631 280.554 408.166 289.991V316.001" stroke="black" stroke-width="6.66933" stroke-miterlimit="10"/>
<path d="M363.948 393.4V367.389C367.35 358.186 376.086 351.983 385.824 351.85C395.828 351.716 404.898 357.952 408.433 367.389V393.4" stroke="black" stroke-width="6.66933" stroke-miterlimit="10"/>
<path d="M25.8447 142.292V131.188" stroke="black" stroke-width="6.66933" stroke-miterlimit="10" stroke-linecap="round"/>
<path d="M25.8447 219.997V208.859" stroke="black" stroke-width="6.66933" stroke-miterlimit="10" stroke-linecap="round"/>
<path d="M25.6465 297.354V286.25" stroke="black" stroke-width="6.66933" stroke-miterlimit="10" stroke-linecap="round"/>
<path d="M25.8447 374.763V363.625" stroke="black" stroke-width="6.66933" stroke-miterlimit="10" stroke-linecap="round"/>
<path d="M457.551 142.292V131.188" stroke="black" stroke-width="6.66933" stroke-miterlimit="10" stroke-linecap="round"/>
<path d="M457.551 219.997V208.859" stroke="black" stroke-width="6.66933" stroke-miterlimit="10" stroke-linecap="round"/>
<path d="M457.385 297.354V286.25" stroke="black" stroke-width="6.66933" stroke-miterlimit="10" stroke-linecap="round"/>
<path d="M457.551 374.763V363.625" stroke="black" stroke-width="6.66933" stroke-miterlimit="10" stroke-linecap="round"/>
<path d="M168.3 142.292V131.188" stroke="black" stroke-width="6.66933" stroke-miterlimit="10" stroke-linecap="round"/>
<path d="M168.3 219.997V208.859" stroke="black" stroke-width="6.66933" stroke-miterlimit="10" stroke-linecap="round"/>
<path d="M168.135 297.354V286.25" stroke="black" stroke-width="6.66933" stroke-miterlimit="10" stroke-linecap="round"/>
<path d="M168.3 374.763V363.625" stroke="black" stroke-width="6.66933" stroke-miterlimit="10" stroke-linecap="round"/>
<path d="M168.471 65.2589V54.1211" stroke="black" stroke-width="6.66933" stroke-miterlimit="10" stroke-linecap="round"/>
<path d="M313.358 142.292V131.188" stroke="black" stroke-width="6.66933" stroke-miterlimit="10" stroke-linecap="round"/>
<path d="M313.358 219.997V208.859" stroke="black" stroke-width="6.66933" stroke-miterlimit="10" stroke-linecap="round"/>
<path d="M313.161 297.354V286.25" stroke="black" stroke-width="6.66933" stroke-miterlimit="10" stroke-linecap="round"/>
<path d="M313.358 374.763V363.625" stroke="black" stroke-width="6.66933" stroke-miterlimit="10" stroke-linecap="round"/>
<path d="M313.529 65.2589V54.1211" stroke="black" stroke-width="6.66933" stroke-miterlimit="10" stroke-linecap="round"/>
</svg>
