<svg width="708" height="391" viewBox="0 0 708 391" fill="none" xmlns="http://www.w3.org/2000/svg">
<path d="M0 386.453H707.81" stroke="black" stroke-width="8.83713" stroke-miterlimit="10"/>
<path d="M234.892 386.451V231.492H476.322V386.451" stroke="black" stroke-width="8.83713" stroke-miterlimit="10"/>
<path d="M277.752 386.449V138.125C285.087 101.407 317.652 74.7188 355.077 74.7188C392.502 74.7188 425.067 101.407 432.402 138.125V386.449" stroke="black" stroke-width="8.83713" stroke-miterlimit="10"/>
<path d="M353.925 0V74.7179" stroke="black" stroke-width="8.83713" stroke-miterlimit="10"/>
<path d="M277.752 184.164H432.446" stroke="black" stroke-width="8.83713" stroke-miterlimit="10"/>
<path d="M54.084 386.447V215.847C54.084 200.691 67.1188 189.379 80.1977 190.749C91.6418 191.986 101.318 202.723 101.098 215.847V386.447" stroke="black" stroke-width="8.83713" stroke-miterlimit="10"/>
<path d="M77.5879 157.309V190.757" stroke="black" stroke-width="8.83713" stroke-miterlimit="10"/>
<path d="M608.92 386.447V215.847C608.92 200.691 621.955 189.379 635.034 190.749C646.478 191.986 656.154 202.723 655.933 215.847V386.447" stroke="black" stroke-width="8.83713" stroke-miterlimit="10"/>
<path d="M632.429 157.309V190.757" stroke="black" stroke-width="8.83713" stroke-miterlimit="10"/>
<path d="M101.096 298.391H234.89H277.75" stroke="black" stroke-width="8.83713" stroke-miterlimit="10"/>
<path d="M476.32 298.391H608.921" stroke="black" stroke-width="8.83713" stroke-miterlimit="10"/>
<path d="M322.688 386.453V303.605C326.621 287.698 341.114 276.696 357.153 277.138C372.486 277.58 385.83 288.449 389.586 303.605V386.453" stroke="black" stroke-width="8.83713" stroke-miterlimit="10"/>
<path d="M139.803 298.385C137.992 279.341 153.059 265.334 165.873 266.262C177.759 267.102 189.91 281.02 187.877 298.385" stroke="black" stroke-width="8.83713" stroke-miterlimit="10"/>
<path d="M518.562 298.385C516.75 279.341 531.818 265.334 544.632 266.262C556.517 267.102 568.669 281.02 566.636 298.385" stroke="black" stroke-width="8.83713" stroke-miterlimit="10"/>
<path d="M154.957 331.703H133.527V353.133H154.957V331.703Z" stroke="black" stroke-width="8.83713" stroke-miterlimit="10"/>
<path d="M200.161 331.703H178.731V353.133H200.161V331.703Z" stroke="black" stroke-width="8.83713" stroke-miterlimit="10"/>
<path d="M531.377 331.703H509.947V353.133H531.377V331.703Z" stroke="black" stroke-width="8.83713" stroke-miterlimit="10"/>
<path d="M577.552 331.703H556.122V353.133H577.552V331.703Z" stroke="black" stroke-width="8.83713" stroke-miterlimit="10"/>
<path d="M234.892 342.387H277.752" stroke="black" stroke-width="8.83713" stroke-miterlimit="10"/>
<path d="M432.445 298.391H476.322" stroke="black" stroke-width="8.83713" stroke-miterlimit="10"/>
<path d="M432.445 342.387H476.322" stroke="black" stroke-width="8.83713" stroke-miterlimit="10"/>
<path d="M54.084 231.492H101.098" stroke="black" stroke-width="8.83713" stroke-miterlimit="10"/>
<path d="M608.92 231.492H655.933" stroke="black" stroke-width="8.83713" stroke-miterlimit="10"/>
</svg>
