<svg width="411" height="390" viewBox="0 0 411 390" fill="none" xmlns="http://www.w3.org/2000/svg">
<path d="M406.945 342.312H4V386.086H406.945V342.312Z" stroke="black" stroke-width="6.46108" stroke-miterlimit="10"/>
<path d="M240.735 386.08V268.004C240.735 255.502 236.018 243.387 227.264 234.471C227.038 234.245 226.811 234.018 226.585 233.76C218.929 226.071 211.208 220.967 205.296 217.672C199.093 221.161 190.985 226.62 183.038 234.891C182.973 234.955 182.908 235.02 182.876 235.084C174.444 243.872 170.051 255.76 170.051 267.939V386.08" stroke="black" stroke-width="6.46108" stroke-miterlimit="10"/>
<path d="M23.6104 342.306V217.672" stroke="black" stroke-width="6.46108" stroke-miterlimit="10"/>
<path d="M103.888 217.677H4V189.668H103.888" stroke="black" stroke-width="6.46108" stroke-miterlimit="10"/>
<path d="M23.6104 189.669V133.426" stroke="black" stroke-width="6.46108" stroke-miterlimit="10"/>
<path d="M103.888 133.42L9.68555 133.517V105.508H103.888" stroke="black" stroke-width="6.46108" stroke-miterlimit="10"/>
<path d="M58.21 154.422H44.6094V168.022H58.21V154.422Z" fill="black"/>
<path d="M86.25 154.262H72.6494V167.862H86.25V154.262Z" fill="black"/>
<path d="M107.539 342.3V43.8627C107.539 38.8554 109.51 34.0419 112.999 30.4883L121.172 22.1535M121.172 22.1535C121.172 14.9171 121.172 7.71297 121.172 0.476562M121.172 22.1535C124.144 24.8994 127.116 27.6454 130.088 30.3914C133.997 34.0096 136.226 39.1138 136.226 44.4442V342.332" stroke="black" stroke-width="6.46108" stroke-miterlimit="10"/>
<path d="M107.539 60.4453H136.259" stroke="black" stroke-width="6.46108" stroke-miterlimit="10"/>
<path d="M107.539 95.3359H136.259" stroke="black" stroke-width="6.46108" stroke-miterlimit="10"/>
<path d="M107.539 125.828H136.259" stroke="black" stroke-width="6.46108" stroke-miterlimit="10"/>
<path d="M107.539 161.047H136.259" stroke="black" stroke-width="6.46108" stroke-miterlimit="10"/>
<path d="M51.4896 342.301L51.3927 301.887C51.3604 294.166 57.4661 287.867 64.8641 287.576C72.6497 287.285 79.4338 293.778 79.4015 301.887V342.301" stroke="black" stroke-width="6.46108" stroke-miterlimit="10"/>
<path d="M58.3047 238.254H44.7041V251.854H58.3047V238.254Z" fill="black"/>
<path d="M85.8926 238.578H72.292V252.179H85.8926V238.578Z" fill="black"/>
<path d="M387.689 341.817V217.215" stroke="black" stroke-width="6.46108" stroke-miterlimit="10"/>
<path d="M307.412 217.224H407.3V189.215H307.412" stroke="black" stroke-width="6.46108" stroke-miterlimit="10"/>
<path d="M387.689 189.21V132.934" stroke="black" stroke-width="6.46108" stroke-miterlimit="10"/>
<path d="M307.412 132.943L401.615 133.072V105.031H307.412" stroke="black" stroke-width="6.46108" stroke-miterlimit="10"/>
<path d="M353.091 167.57H366.691V153.97H353.091V167.57Z" fill="black"/>
<path d="M325.051 167.406H338.651V153.806H325.051V167.406Z" fill="black"/>
<path d="M303.762 341.823V43.3862C303.762 38.3788 301.792 33.5653 298.303 30.0117L290.13 21.6769M290.13 21.6769C290.13 14.4405 290.13 7.23641 290.13 0M290.13 21.6769C287.157 24.4229 284.185 27.1688 281.213 29.9148C277.304 33.533 275.075 38.6373 275.075 43.9677V341.856" stroke="black" stroke-width="6.46108" stroke-miterlimit="10"/>
<path d="M275.043 59.9922H303.762" stroke="black" stroke-width="6.46108" stroke-miterlimit="10"/>
<path d="M303.762 94.8867H275.043" stroke="black" stroke-width="6.46108" stroke-miterlimit="10"/>
<path d="M303.762 125.344H275.043" stroke="black" stroke-width="6.46108" stroke-miterlimit="10"/>
<path d="M303.762 160.594H275.043" stroke="black" stroke-width="6.46108" stroke-miterlimit="10"/>
<path d="M359.781 341.825L359.878 301.411C359.91 293.69 353.805 287.39 346.407 287.099C338.621 286.808 331.837 293.302 331.869 301.411C331.869 314.882 331.869 328.353 331.869 341.825" stroke="black" stroke-width="6.46108" stroke-miterlimit="10"/>
<path d="M352.996 251.398H366.597V237.798H352.996V251.398Z" fill="black"/>
<path d="M325.376 251.691H338.977V238.091H325.376V251.691Z" fill="black"/>
<path d="M136.26 55.8906H275.044" stroke="black" stroke-width="6.46108" stroke-miterlimit="10"/>
<path d="M136.26 80.8242H275.044" stroke="black" stroke-width="6.46108" stroke-miterlimit="10"/>
<path d="M136.26 140.531H275.044" stroke="black" stroke-width="6.46108" stroke-miterlimit="10"/>
<path d="M136.26 181.973H275.044" stroke="black" stroke-width="6.46108" stroke-miterlimit="10"/>
<path d="M163.072 140.531V181.979" stroke="black" stroke-width="6.46108" stroke-miterlimit="10"/>
<path d="M191.274 140.531V181.979" stroke="black" stroke-width="6.46108" stroke-miterlimit="10"/>
<path d="M219.283 140.531V181.979" stroke="black" stroke-width="6.46108" stroke-miterlimit="10"/>
<path d="M247.486 140.531V181.979" stroke="black" stroke-width="6.46108" stroke-miterlimit="10"/>
<path d="M169.888 105.32H156.287V118.921H169.888V105.32Z" fill="black"/>
<path d="M198.091 105.902H184.49V119.503H198.091V105.902Z" fill="black"/>
<path d="M226.1 105.32H212.499V118.921H226.1V105.32Z" fill="black"/>
<path d="M254.27 105.902H240.669V119.503H254.27V105.902Z" fill="black"/>
<path d="M170.212 202.969H156.611V216.569H170.212V202.969Z" fill="black"/>
<path d="M254.108 202.969H240.508V216.569H254.108V202.969Z" fill="black"/>
<path d="M212.08 21.5156H198.738V55.7917H212.08V21.5156Z" fill="black"/>
</svg>
