<svg width="363" height="393" viewBox="0 0 363 393" fill="none" xmlns="http://www.w3.org/2000/svg">
<path d="M30.4385 390.073V231.854C30.4385 229.209 32.0599 226.651 34.933 224.755L41.6463 220.328M41.6463 220.328C41.6463 216.506 41.6463 212.683 41.6463 208.832C41.6463 212.655 41.6463 216.477 41.6463 220.328ZM41.6463 220.328C44.0927 221.794 46.5391 223.231 48.9855 224.697C52.1999 226.623 54.0205 229.324 54.0205 232.141V390.073" stroke="black" stroke-width="5.68926" stroke-miterlimit="10"/>
<path d="M30.4385 279.934H54.0205H90.9153" stroke="black" stroke-width="5.68926" stroke-miterlimit="10"/>
<path d="M30.4385 308.672H54.0205" stroke="black" stroke-width="5.68926" stroke-miterlimit="10"/>
<path d="M30.4385 333.801H54.0205H90.9153" stroke="black" stroke-width="5.68926" stroke-miterlimit="10"/>
<path d="M90.9141 390.081V268.047H128.833V390.081" stroke="black" stroke-width="5.68926" stroke-miterlimit="10"/>
<path d="M90.9141 333.801H128.833H233.8H271.719" stroke="black" stroke-width="5.68926" stroke-miterlimit="10"/>
<path d="M71.9404 293.504V319.917" stroke="black" stroke-width="5.68926" stroke-miterlimit="10"/>
<path d="M109.859 293.504V319.917" stroke="black" stroke-width="5.68926" stroke-miterlimit="10"/>
<path d="M71.9404 349.664V376.106" stroke="black" stroke-width="5.68926" stroke-miterlimit="10"/>
<path d="M109.859 349.664V376.106" stroke="black" stroke-width="5.68926" stroke-miterlimit="10"/>
<path d="M98.084 268.01V224.295C98.084 220.846 99.7054 217.57 102.579 215.098L109.292 209.379M109.292 209.379C109.292 204.435 109.292 199.463 109.292 194.52M109.292 209.379C111.738 211.276 114.185 213.144 116.631 215.041C119.845 217.512 121.666 221.019 121.666 224.669V267.982" stroke="black" stroke-width="5.68926" stroke-miterlimit="10"/>
<path d="M85.0254 239.617H134.067" stroke="black" stroke-width="5.68926" stroke-miterlimit="10"/>
<path d="M121.352 268.038V219.121C121.352 215.27 122.973 211.591 125.846 208.832L132.559 202.422M132.559 202.422C132.559 196.875 132.559 191.328 132.559 185.781M132.559 202.422C135.006 204.52 137.452 206.647 139.899 208.745C143.113 211.533 144.934 215.442 144.934 219.523V253.811L128.833 268.009H233.8L217.699 253.811V219.523C217.699 215.413 219.52 211.504 222.734 208.745C225.181 206.647 227.627 204.52 230.073 202.422M230.073 202.422C230.073 196.875 230.073 191.328 230.073 185.781M230.073 202.422L236.787 208.832C239.66 211.562 241.281 215.27 241.281 219.121V268.038" stroke="black" stroke-width="5.68926" stroke-miterlimit="10"/>
<path d="M144.936 219.557V109.795C141.636 81.6859 163.397 60.0726 183.111 60.9061C201.97 61.7109 221.229 83.1517 217.787 109.795V219.557" stroke="black" stroke-width="5.68926" stroke-miterlimit="10"/>
<path d="M193.975 44.3828H167.69C163.935 44.3828 160.892 47.4582 160.892 51.2519V54.0111C160.892 57.8048 163.935 60.8802 167.69 60.8802H193.975C197.729 60.8802 200.773 57.8048 200.773 54.0111V51.2519C200.773 47.4582 197.729 44.3828 193.975 44.3828Z" stroke="black" stroke-width="5.68926" stroke-miterlimit="10"/>
<path d="M187.462 27.875H174.234C170.479 27.875 167.436 30.9504 167.436 34.7441V37.5032C167.436 41.2969 170.479 44.3723 174.234 44.3723H187.462C191.217 44.3723 194.26 41.2969 194.26 37.5032V34.7441C194.26 30.9504 191.217 27.875 187.462 27.875Z" stroke="black" stroke-width="5.68926" stroke-miterlimit="10"/>
<path d="M180.834 0V27.8788" stroke="black" stroke-width="5.68926" stroke-miterlimit="10"/>
<path d="M158.275 109.125H144.934" stroke="black" stroke-width="5.68926" stroke-miterlimit="10"/>
<path d="M158.275 128.965H144.593" stroke="black" stroke-width="5.68926" stroke-miterlimit="10"/>
<path d="M158.445 147.789H145.104" stroke="black" stroke-width="5.68926" stroke-miterlimit="10"/>
<path d="M232.55 167.617H132.22" stroke="black" stroke-width="5.68926" stroke-miterlimit="10"/>
<path d="M158.19 187.441H144.849" stroke="black" stroke-width="5.68926" stroke-miterlimit="10"/>
<path d="M158.19 207.25H144.507" stroke="black" stroke-width="5.68926" stroke-miterlimit="10"/>
<path d="M158.362 226.113H145.021" stroke="black" stroke-width="5.68926" stroke-miterlimit="10"/>
<path d="M171.359 224.122H192.609V199.003C193.491 190.927 188.171 184.575 183.136 184.144C177.646 183.655 170.705 189.978 171.359 199.003V224.122Z" stroke="black" stroke-width="5.68926" stroke-miterlimit="10"/>
<path d="M171.303 167.616V107.49C171.644 94.4994 177.447 85.7333 181.799 85.6759C186.18 85.6471 192.211 94.3844 192.694 107.49V167.616" stroke="black" stroke-width="5.68926" stroke-miterlimit="10"/>
<path d="M332.196 390.073V231.854C332.196 229.209 330.575 226.651 327.702 224.755L320.988 220.328M320.988 220.328C320.988 216.506 320.988 212.683 320.988 208.832C320.988 212.655 320.988 216.477 320.988 220.328ZM320.988 220.328C318.542 221.794 316.096 223.231 313.649 224.697C310.435 226.623 308.614 229.324 308.614 232.141V390.073" stroke="black" stroke-width="5.68926" stroke-miterlimit="10"/>
<path d="M332.194 279.934H308.612H271.717" stroke="black" stroke-width="5.68926" stroke-miterlimit="10"/>
<path d="M332.196 308.672H308.614" stroke="black" stroke-width="5.68926" stroke-miterlimit="10"/>
<path d="M332.194 333.801H308.612H271.717" stroke="black" stroke-width="5.68926" stroke-miterlimit="10"/>
<path d="M271.72 390.081V268.047H233.801V390.081" stroke="black" stroke-width="5.68926" stroke-miterlimit="10"/>
<path d="M290.694 293.504V319.917" stroke="black" stroke-width="5.68926" stroke-miterlimit="10"/>
<path d="M252.774 293.504V319.917" stroke="black" stroke-width="5.68926" stroke-miterlimit="10"/>
<path d="M290.694 349.664V376.106" stroke="black" stroke-width="5.68926" stroke-miterlimit="10"/>
<path d="M252.774 349.664V376.106" stroke="black" stroke-width="5.68926" stroke-miterlimit="10"/>
<path d="M264.551 268.01V224.295C264.551 220.846 262.929 217.57 260.056 215.098L253.343 209.379M253.343 209.379C253.343 204.435 253.343 199.463 253.343 194.52M253.343 209.379C250.897 211.276 248.45 213.144 246.004 215.041C242.789 217.512 240.969 221.019 240.969 224.669V267.982" stroke="black" stroke-width="5.68926" stroke-miterlimit="10"/>
<path d="M277.606 239.617H228.564" stroke="black" stroke-width="5.68926" stroke-miterlimit="10"/>
<path d="M204.357 109.125H217.699" stroke="black" stroke-width="5.68926" stroke-miterlimit="10"/>
<path d="M204.357 128.965H218.04" stroke="black" stroke-width="5.68926" stroke-miterlimit="10"/>
<path d="M204.188 147.789H217.53" stroke="black" stroke-width="5.68926" stroke-miterlimit="10"/>
<path d="M204.444 187.441H217.786" stroke="black" stroke-width="5.68926" stroke-miterlimit="10"/>
<path d="M204.444 207.25H218.127" stroke="black" stroke-width="5.68926" stroke-miterlimit="10"/>
<path d="M204.271 226.113H217.613" stroke="black" stroke-width="5.68926" stroke-miterlimit="10"/>
<path d="M144.934 253.84H217.699" stroke="black" stroke-width="5.68926" stroke-miterlimit="10"/>
<path d="M128.834 284.906H233.801" stroke="black" stroke-width="5.68926" stroke-miterlimit="10"/>
<path d="M128.834 319.914H233.801" stroke="black" stroke-width="5.68926" stroke-miterlimit="10"/>
<path d="M145.104 284.906V390.07" stroke="black" stroke-width="5.68926" stroke-miterlimit="10"/>
<path d="M217.527 284.906V390.07" stroke="black" stroke-width="5.68926" stroke-miterlimit="10"/>
<path d="M168.344 390.074V355.613H195.169V390.074" stroke="black" stroke-width="5.68926" stroke-miterlimit="10"/>
<path d="M163.51 293.504V319.917" stroke="black" stroke-width="5.68926" stroke-miterlimit="10"/>
<path d="M198.641 293.504V319.917" stroke="black" stroke-width="5.68926" stroke-miterlimit="10"/>
<path d="M0 390.07H362.975" stroke="black" stroke-width="5.68926" stroke-miterlimit="10"/>
</svg>
